<?xml version="1.0" standalone="no"?>
<!DOCTYPE svg PUBLIC "-//W3C//DTD SVG 20010904//EN"
 "http://www.w3.org/TR/2001/REC-SVG-20010904/DTD/svg10.dtd">
<svg version="1.0" xmlns="http://www.w3.org/2000/svg"
 width="240.000000pt" height="120.000000pt" viewBox="0 0 240.000000 120.000000"
 preserveAspectRatio="xMidYMid meet">

<g transform="translate(0.000000,120.000000) scale(0.100000,-0.100000)"
fill="#000000" stroke="none">
<path d="M1640 545 l0 -485 380 0 380 0 0 485 0 485 -380 0 -380 0 0 -485z
m225 365 c10 -19 15 -58 15 -117 0 -98 7 -136 24 -130 8 3 10 41 7 124 -3 115
-2 121 19 136 49 34 68 -6 72 -155 3 -85 7 -110 21 -126 24 -26 71 -35 119
-22 53 15 78 57 78 133 0 48 -4 62 -25 82 -62 63 -148 -15 -105 -96 13 -22 50
-26 50 -4 0 8 -9 15 -20 15 -22 0 -26 20 -8 38 17 17 63 15 78 -4 19 -22 16
-70 -4 -93 -39 -43 -145 -30 -162 21 -12 39 -7 112 10 147 26 49 71 73 130 68
42 -4 55 -10 83 -41 19 -20 34 -47 34 -63 1 -16 1 -165 -1 -333 -2 -324 -6
-350 -50 -350 -33 0 -43 35 -36 130 4 48 4 99 1 113 -15 56 -24 23 -27 -89 -3
-107 -5 -118 -25 -131 -19 -13 -24 -12 -42 6 -17 17 -21 34 -21 90 0 38 -3 82
-6 100 -14 66 -103 116 -164 91 -43 -18 -60 -47 -59 -100 1 -99 31 -134 108
-122 57 8 68 84 17 117 -39 26 -84 -11 -53 -43 12 -12 15 -10 21 12 7 28 30
35 40 11 3 -8 1 -26 -4 -40 -7 -19 -17 -25 -41 -25 -45 0 -69 25 -69 72 0 101
123 120 171 26 23 -44 24 -86 5 -132 -20 -47 -51 -66 -111 -66 -74 0 -116 26
-139 86 -17 45 -19 75 -17 353 1 174 6 312 12 323 16 29 56 23 74 -12z"/>
<path d="M420 886 c0 -99 1 -106 20 -106 15 0 20 7 20 29 0 24 5 29 32 35 65
13 98 75 64 121 -10 13 -30 20 -75 23 l-61 4 0 -106z m95 53 c4 -5 4 -21 1
-35 -5 -17 -13 -24 -31 -24 -22 0 -25 4 -25 35 0 30 3 35 24 35 14 0 28 -5 31
-11z"/>
<path d="M602 885 c1 -103 2 -105 25 -105 20 0 23 5 23 35 0 23 5 35 13 35 8
0 22 -16 33 -35 13 -24 26 -35 41 -35 28 0 28 4 2 47 -20 31 -20 35 -5 52 9
10 16 32 16 49 0 42 -31 62 -97 62 l-53 0 2 -105z m102 49 c9 -22 -11 -54 -34
-54 -16 0 -20 7 -20 35 0 30 3 35 24 35 13 0 27 -7 30 -16z"/>
<path d="M827 979 c-24 -14 -47 -62 -47 -99 0 -37 23 -85 45 -94 49 -18 116 2
134 41 24 52 4 142 -34 157 -25 9 -78 7 -98 -5z m81 -41 c16 -16 16 -100 0
-116 -18 -18 -56 -14 -68 7 -5 11 -10 34 -10 51 0 17 5 40 10 51 12 21 50 25
68 7z"/>
<path d="M1010 886 c0 -99 1 -106 20 -106 15 0 20 7 20 29 0 25 5 30 36 35 45
9 74 38 74 74 0 49 -21 65 -89 70 l-61 4 0 -106z m95 53 c4 -5 4 -21 1 -35 -5
-17 -13 -24 -31 -24 -22 0 -25 4 -25 35 0 30 3 35 24 35 14 0 28 -5 31 -11z"/>
<path d="M1199 988 c0 -2 -1 -49 -2 -106 -2 -100 -1 -102 21 -102 18 0 22 6
22 29 0 25 5 30 35 35 37 7 75 46 75 78 0 10 -11 30 -25 43 -19 20 -34 25 -75
25 -27 0 -50 -1 -51 -2z m98 -54 c8 -22 -9 -48 -36 -52 -18 -3 -21 1 -21 32 0
32 3 36 25 36 15 0 28 -7 32 -16z"/>
<path d="M1399 962 c-29 -26 -33 -35 -33 -82 0 -45 4 -56 28 -76 18 -16 40
-24 66 -24 60 0 70 7 70 51 0 32 -4 39 -19 39 -14 0 -21 -8 -23 -27 -4 -39
-41 -43 -64 -8 -19 29 -14 92 8 107 7 5 31 7 53 6 34 -3 40 0 40 17 0 17 -8
20 -47 23 -40 3 -51 -1 -79 -26z"/>
<path d="M360 719 c-15 -28 -7 -34 14 -10 11 12 13 21 7 25 -5 4 -15 -3 -21
-15z"/>
<path d="M1390 712 c0 -21 -7 -30 -28 -38 -34 -13 -47 -57 -31 -103 11 -30 30
-40 62 -33 15 4 17 17 17 103 0 59 -4 99 -10 99 -5 0 -10 -13 -10 -28z m0
-107 c0 -30 -4 -55 -8 -55 -18 0 -32 26 -32 60 0 39 6 50 27 50 9 0 13 -16 13
-55z"/>
<path d="M750 715 c0 -8 5 -15 10 -15 6 0 10 7 10 15 0 8 -4 15 -10 15 -5 0
-10 -7 -10 -15z"/>
<path d="M1100 715 c0 -9 5 -15 11 -13 6 2 11 8 11 13 0 5 -5 11 -11 13 -6 2
-11 -4 -11 -13z"/>
<path d="M110 630 c0 -53 4 -90 10 -90 6 0 10 13 10 28 0 22 7 31 33 43 26 11
33 21 35 49 4 40 -16 60 -60 60 l-28 0 0 -90z m65 35 c0 -23 -5 -31 -22 -33
-20 -3 -23 1 -23 33 0 32 3 36 23 33 17 -2 22 -10 22 -33z"/>
<path d="M510 630 c0 -53 4 -90 10 -90 6 0 10 16 10 35 0 22 5 35 13 35 7 0
21 -16 30 -35 22 -47 42 -46 22 1 -10 25 -12 41 -5 54 25 46 0 90 -51 90 l-29
0 0 -90z m60 55 c16 -19 3 -55 -21 -55 -15 0 -19 7 -19 35 0 37 18 47 40 20z"/>
<path d="M810 641 c0 -87 5 -101 39 -100 15 0 20 3 11 6 -23 9 -30 24 -30 66
0 30 5 40 23 47 18 7 19 9 4 9 -11 1 -21 10 -24 21 -11 42 -23 17 -23 -49z"/>
<path d="M254 672 c-17 -10 -23 -132 -6 -132 8 0 12 19 12 60 0 54 2 60 21 60
11 0 17 5 14 10 -7 12 -25 13 -41 2z"/>
<path d="M326 658 c-18 -26 -21 -71 -6 -99 16 -28 66 -26 76 4 26 81 -28 155
-70 95z m49 -54 c0 -37 -4 -49 -15 -49 -22 0 -36 49 -22 80 19 41 37 25 37
-31z"/>
<path d="M646 664 c-10 -9 -16 -33 -16 -59 0 -50 26 -77 63 -67 21 6 21 6 2
10 -54 11 -62 52 -10 52 34 0 35 1 29 28 -13 52 -39 66 -68 36z m42 -27 c2
-12 -3 -17 -17 -17 -12 0 -21 6 -21 13 0 31 32 34 38 4z"/>
<path d="M906 661 c-24 -27 -18 -99 9 -117 18 -12 24 -11 43 2 17 12 22 25 22
59 0 66 -38 96 -74 56z m52 -44 c4 -45 -13 -73 -34 -56 -15 12 -18 56 -8 84
12 30 39 12 42 -28z"/>
<path d="M1033 673 c-16 -6 -18 -133 -3 -133 6 0 10 27 10 60 0 54 2 60 21 60
11 0 17 5 14 10 -7 11 -22 12 -42 3z"/>
<path d="M1175 671 c-3 -5 5 -11 17 -13 29 -4 38 -38 10 -38 -26 0 -44 -24
-40 -52 2 -19 10 -24 41 -26 l37 -3 0 58 c0 33 -5 64 -12 71 -14 14 -44 16
-53 3z m45 -96 c0 -25 -23 -35 -35 -15 -10 16 2 40 20 40 9 0 15 -9 15 -25z"/>
<path d="M1466 664 c-10 -9 -16 -33 -16 -59 0 -50 26 -77 63 -67 21 6 21 6 2
10 -50 10 -62 52 -15 52 26 0 30 4 30 28 0 48 -34 67 -64 36z m44 -24 c0 -13
-7 -20 -20 -20 -19 0 -27 20 -13 33 13 14 33 6 33 -13z"/>
<path d="M750 605 c0 -37 4 -65 10 -65 6 0 10 28 10 65 0 37 -4 65 -10 65 -6
0 -10 -28 -10 -65z"/>
<path d="M1100 605 c0 -37 4 -65 10 -65 6 0 10 28 10 65 0 37 -4 65 -10 65 -6
0 -10 -28 -10 -65z"/>
<path d="M430 620 c0 -5 11 -10 25 -10 14 0 25 5 25 10 0 6 -11 10 -25 10 -14
0 -25 -4 -25 -10z"/>
<path d="M1137 504 c-8 -8 1 -24 14 -24 5 0 9 7 9 15 0 15 -12 20 -23 9z"/>
<path d="M560 410 c0 -49 4 -90 9 -90 6 0 11 15 13 32 2 24 9 34 23 36 32 6
45 22 45 56 0 41 -16 56 -57 56 l-33 0 0 -90z m65 35 c0 -23 -5 -31 -22 -33
-20 -3 -23 1 -23 33 0 32 3 36 23 33 17 -2 22 -10 22 -33z"/>
<path d="M696 444 c-25 -24 -21 -99 5 -118 12 -8 28 -12 36 -9 11 4 8 8 -9 17
-12 6 -24 19 -26 29 -3 13 4 17 27 17 27 0 31 3 31 28 0 48 -34 67 -64 36z
m42 -27 c2 -12 -3 -17 -17 -17 -12 0 -21 6 -21 13 0 31 32 34 38 4z"/>
<path d="M808 449 c-26 -15 -22 -44 8 -68 31 -24 26 -57 -6 -48 -22 6 -28 -8
-7 -16 22 -8 57 11 57 32 0 11 -12 31 -26 45 -27 24 -26 46 2 46 8 0 12 5 9
10 -8 12 -15 12 -37 -1z"/>
<path d="M900 440 c-40 -40 -11 -141 37 -123 13 5 15 3 10 -11 -4 -10 -7 -29
-7 -42 0 -17 -6 -24 -18 -24 -61 0 -72 -133 -12 -140 48 -7 47 -10 55 171 6
140 5 173 -6 180 -22 14 -37 11 -59 -11z m48 -52 c-3 -60 -25 -73 -42 -26 -11
33 6 78 29 78 13 0 15 -10 13 -52z m-8 -217 c0 -55 -16 -74 -37 -46 -26 36
-11 95 24 95 9 0 13 -16 13 -49z"/>
<path d="M1206 444 c-22 -21 -20 -31 10 -59 30 -28 26 -55 -8 -56 -22 0 -22
-1 -3 -8 52 -21 74 38 28 74 -28 23 -25 45 8 45 11 0 17 5 14 10 -9 15 -31 12
-49 -6z"/>
<path d="M1295 451 c-3 -5 5 -11 17 -13 29 -4 38 -38 10 -38 -28 0 -45 -25
-38 -55 5 -21 12 -25 41 -25 l35 0 0 58 c0 32 -5 63 -12 70 -14 14 -44 16 -53
3z m45 -96 c0 -25 -23 -35 -35 -15 -10 16 2 40 20 40 9 0 15 -9 15 -25z"/>
<path d="M1466 444 c-10 -9 -16 -33 -16 -59 0 -50 26 -77 63 -67 21 6 21 6 2
10 -50 10 -62 52 -15 52 26 0 30 4 30 28 0 48 -34 67 -64 36z m42 -27 c2 -12
-3 -17 -17 -17 -12 0 -21 6 -21 13 0 31 32 34 38 4z"/>
<path d="M1012 388 l3 -63 38 -3 37 -3 0 65 c0 37 -4 66 -10 66 -6 0 -10 -27
-10 -61 0 -52 -2 -60 -17 -57 -14 2 -19 15 -21 61 -2 31 -7 57 -13 57 -6 0 -9
-26 -7 -62z"/>
<path d="M1140 385 c0 -37 4 -65 10 -65 6 0 10 28 10 65 0 37 -4 65 -10 65 -6
0 -10 -28 -10 -65z"/>
<path d="M305 280 c-10 -11 -13 -20 -8 -20 13 0 38 29 31 35 -3 3 -13 -4 -23
-15z"/>
<path d="M1340 277 c0 -14 52 -15 57 -1 2 5 -11 10 -27 11 -18 1 -30 -3 -30
-10z"/>
<path d="M140 190 c0 -49 4 -90 9 -90 6 0 11 14 13 32 2 25 9 33 32 39 74 20
55 109 -22 109 l-32 0 0 -90z m65 35 c0 -23 -5 -31 -22 -33 -20 -3 -23 1 -23
33 0 32 3 36 23 33 17 -2 22 -10 22 -33z"/>
<path d="M556 258 c-18 -25 -21 -100 -6 -128 14 -26 47 -42 70 -35 16 5 20 15
20 51 0 24 -4 44 -10 44 -5 0 -10 -18 -10 -40 0 -65 -45 -48 -56 22 -9 53 10
88 46 88 16 0 30 5 30 10 0 6 -15 10 -34 10 -25 0 -39 -7 -50 -22z"/>
<path d="M276 218 c-23 -32 -20 -84 5 -109 18 -18 23 -19 42 -6 30 19 37 105
11 124 -25 19 -41 16 -58 -9z m52 -41 c4 -45 -13 -73 -34 -56 -15 12 -18 56
-8 84 12 30 39 12 42 -28z"/>
<path d="M392 228 c-19 -19 -14 -43 14 -67 29 -25 27 -46 -5 -45 -11 0 -21 -3
-21 -8 0 -5 15 -8 33 -6 43 4 48 37 11 71 -26 25 -26 47 2 47 8 0 14 5 14 10
0 14 -33 13 -48 -2z"/>
<path d="M693 233 c-9 -3 -13 -27 -13 -70 0 -47 3 -64 13 -60 7 2 12 23 12 58
0 43 3 54 18 57 9 2 17 8 17 13 0 9 -26 11 -47 2z"/>
<path d="M775 231 c-3 -5 5 -11 17 -13 33 -5 37 -38 4 -38 -32 0 -51 -32 -36
-60 8 -14 21 -20 45 -20 l35 0 0 60 c0 48 -4 61 -19 70 -24 12 -38 13 -46 1z
m43 -93 c-2 -13 -10 -23 -18 -23 -8 0 -16 10 -18 23 -3 17 2 22 18 22 16 0 21
-5 18 -22z"/>
<path d="M1069 233 c0 -5 0 -28 0 -53 2 -57 -11 -79 -33 -61 -11 9 -16 30 -16
62 0 27 -4 49 -10 49 -11 0 -14 -88 -4 -114 4 -10 18 -16 40 -16 l34 0 0 70
c0 39 -2 70 -5 70 -3 0 -5 -3 -6 -7z"/>
<path d="M1135 231 c-3 -5 5 -11 17 -13 29 -4 38 -38 10 -38 -26 0 -44 -24
-40 -52 2 -19 10 -24 41 -26 l37 -3 0 58 c0 33 -5 64 -12 71 -14 14 -44 16
-53 3z m45 -97 c0 -33 -33 -30 -38 4 -3 17 2 22 17 22 16 0 21 -6 21 -26z"/>
<path d="M1249 223 c-21 -24 -18 -102 4 -117 20 -15 23 -42 5 -49 -7 -3 -3 -6
10 -6 17 -1 22 5 22 24 0 14 6 25 13 26 6 0 0 5 -15 11 -25 9 -28 15 -28 55 0
36 4 46 20 50 11 3 20 9 20 14 0 15 -37 10 -51 -8z"/>
<path d="M1340 231 c0 -5 10 -11 22 -13 33 -5 37 -38 4 -38 -32 0 -51 -32 -36
-60 8 -14 21 -20 45 -20 l35 0 0 54 c0 36 -5 60 -16 70 -17 17 -54 22 -54 7z
m48 -93 c-2 -13 -10 -23 -18 -23 -8 0 -16 10 -18 23 -3 17 2 22 18 22 16 0 21
-5 18 -22z"/>
<path d="M1457 222 c-19 -21 -22 -73 -7 -103 13 -24 65 -26 74 -3 3 9 6 35 6
59 0 34 -5 47 -19 55 -27 14 -35 13 -54 -8z m51 -52 c4 -52 -13 -74 -34 -46
-17 24 -18 68 -2 84 20 20 33 8 36 -38z"/>
<path d="M465 180 c-4 -6 5 -10 19 -10 14 0 26 5 26 10 0 6 -9 10 -19 10 -11
0 -23 -4 -26 -10z"/>
</g>
</svg>
